<svg id="Layer_1" data-name="Layer 1" xmlns="http://www.w3.org/2000/svg" viewBox="0 0 1103 306"><defs><style>.cls-1{fill:none;stroke:#000;stroke-miterlimit:10;stroke-width:18.29px;}</style></defs><path d="M368.78,104.91v12.4H303v55.78h55.57v12.4H303v68.82H288V104.91Z"/><path d="M407.89,96.15V254.31h-15V96.15Z"/><path d="M441.76,164.22a51.31,51.31,0,0,1,19.88-20.94,56.22,56.22,0,0,1,28.75-7.38q16.67,0,28.74,7.7a44.76,44.76,0,0,1,17.42,19.66V137.61h15v116.7h-15V228.45a46.89,46.89,0,0,1-17.63,19.77q-12.07,7.8-28.75,7.8a55.19,55.19,0,0,1-28.53-7.48,51.89,51.89,0,0,1-19.88-21.16q-7.15-13.68-7.16-31.63T441.76,164.22Zm89,6.95a41.16,41.16,0,0,0-15.71-16.46,42.81,42.81,0,0,0-21.91-5.77,44.29,44.29,0,0,0-22.22,5.56,39.36,39.36,0,0,0-15.5,16.13q-5.65,10.59-5.66,25.12,0,14.31,5.66,25.11a39.81,39.81,0,0,0,15.5,16.46A43.74,43.74,0,0,0,493.16,243a42.81,42.81,0,0,0,21.91-5.77,41.16,41.16,0,0,0,15.71-16.46q5.78-10.68,5.77-24.79T530.78,171.17Z"/><path d="M604.73,150.22v72.46q0,10.68,4.06,14.74t14.32,4.06h13.68v12.83h-16q-15.82,0-23.51-7.38t-7.7-24.25V150.22H573.31V137.61h16.24V108.33h15.18v29.28h32.06v12.61Z"/><path d="M765.45,176.4q-6,10.8-18.38,17.42t-30.78,6.63H693.63v53.86H657.09v-150h59.2q18,0,30.35,6.2a42.57,42.57,0,0,1,18.59,17.1,49.69,49.69,0,0,1,6.2,25A48.37,48.37,0,0,1,765.45,176.4Zm-36.34-9.93q5.13-4.92,5.13-13.9t-5.13-13.89q-5.13-4.91-15.6-4.91H693.63v37.61h19.88Q724,171.38,729.11,166.47Z"/><path d="M812.78,248.54a54.74,54.74,0,0,1-22-21.38q-8-13.89-8-32.48,0-18.39,8.12-32.38a55.09,55.09,0,0,1,22.23-21.48,70.62,70.62,0,0,1,63.26,0A55.21,55.21,0,0,1,898.6,162.3q8.11,14,8.12,32.38t-8.23,32.38a55.74,55.74,0,0,1-22.44,21.48A67.08,67.08,0,0,1,844.31,256,65.84,65.84,0,0,1,812.78,248.54Zm49.38-31.85q7.37-7.69,7.37-22t-7.16-22a24.29,24.29,0,0,0-35.37-.1q-7.05,7.59-7.06,22.12,0,14.32,6.95,22a22.49,22.49,0,0,0,17.42,7.7A23.83,23.83,0,0,0,862.16,216.69Z"/><path d="M948.5,248.54a54.74,54.74,0,0,1-22-21.38q-8-13.89-8-32.48,0-18.39,8.12-32.38a55.21,55.21,0,0,1,22.23-21.48,70.62,70.62,0,0,1,63.26,0,55.15,55.15,0,0,1,22.23,21.48q8.12,14,8.12,32.38t-8.23,32.38a55.61,55.61,0,0,1-22.44,21.48A67,67,0,0,1,980,256,65.78,65.78,0,0,1,948.5,248.54Zm49.37-31.85q7.38-7.69,7.37-22t-7.16-22a24.29,24.29,0,0,0-35.37-.1q-7.05,7.59-7.05,22.12,0,14.32,7,22a22.47,22.47,0,0,0,17.41,7.7A23.81,23.81,0,0,0,997.87,216.69Z"/><path d="M1098,96.15V254.31h-36.55V96.15Z"/><polygon class="cls-1" points="13 109.12 13 292.64 248.95 292.64 248.95 109.12 130.98 17.36 13 109.12"/><line class="cls-1" x1="204.71" y1="76.35" x2="204.71" y2="17.36"/><rect x="62.16" y="118" width="58.13" height="58.13"/><rect x="62.16" y="195.18" width="58.13" height="58.13"/><rect x="139.34" y="195.18" width="58.13" height="58.13"/><rect x="139.34" y="118" width="58.13" height="58.13"/><line class="cls-1" x1="287.82" y1="292.64" x2="1095.87" y2="292.64"/></svg>